<?xml version="1.0" encoding="iso-8859-1"?>
<!-- Uploaded to: SVG Repo, www.svgrepo.com, Generator: SVG Repo Mixer Tools -->
<svg height="800px" width="800px" version="1.1" id="Layer_1" xmlns="http://www.w3.org/2000/svg" xmlns:xlink="http://www.w3.org/1999/xlink" 
	 viewBox="0 0 473.931 473.931" xml:space="preserve">
<circle style="fill:#E5AA17;" cx="236.966" cy="236.966" r="236.966"/>
<path style="fill:#9B7542;" d="M268.632,309.174c-0.326,14.649-13.575,25.59-29.586,24.437l0,0
	c-16.018-1.156-28.74-13.964-28.411-28.617l1.369-61.346c0.322-14.645,13.568-25.586,29.582-24.434l0,0
	c16.018,1.145,28.737,13.953,28.415,28.606L268.632,309.174z"/>
<path style="fill:#A47E46;" d="M283.442,215.151c3.618,24.445-14.922,45.795-41.406,47.689l0,0
	c-26.492,1.897-50.888-16.381-54.499-40.83l-15.128-102.386c-3.618-24.437,14.926-45.792,41.414-47.689l0,0
	c26.48-1.893,50.88,16.381,54.491,40.826L283.442,215.151z"/>
<path style="fill:#9E7640;" d="M301.193,228.09c0,0-13.422-42.768,12.771-80.186l3.981,65.533L301.193,228.09z"/>
<g>
	<ellipse style="fill:#4D4C4C;" cx="235.046" cy="178.538" rx="30.858" ry="31.962"/>
	<ellipse style="fill:#4D4C4C;" cx="298.63" cy="165.461" rx="30.858" ry="31.958"/>
	<polygon style="fill:#4D4C4C;" points="228.176,148.885 241.347,135.051 275.704,127.957 294.499,134.344 307.273,195.664 
		274.316,183.043 238.548,209.692 	"/>
</g>
<ellipse style="fill:#3F3E40;" cx="307.386" cy="169.165" rx="28.654" ry="29.683"/>
<ellipse style="fill:#4D4C4C;" cx="315.094" cy="170.359" rx="20.916" ry="21.661"/>
<ellipse style="fill:#3F3E40;" cx="319.771" cy="171.294" rx="17.534" ry="18.159"/>
<ellipse style="fill:#DCEFED;" cx="321.791" cy="171.294" rx="11.555" ry="12.587"/>
<path style="fill:#A9D5D0;" d="M321.773,183.881c-6.38,0-11.555-5.639-11.555-12.587c0-6.952,5.175-12.591,11.555-12.591
	C328.16,158.699,328.16,183.881,321.773,183.881z"/>
<ellipse style="fill:#3F3E40;" cx="250.009" cy="180.39" rx="28.654" ry="29.683"/>
<ellipse style="fill:#4D4C4C;" cx="257.721" cy="181.584" rx="20.92" ry="21.661"/>
<ellipse style="fill:#3F3E40;" cx="262.41" cy="182.519" rx="17.534" ry="18.159"/>
<ellipse style="fill:#DCEFED;" cx="264.393" cy="182.519" rx="11.558" ry="12.587"/>
<path style="fill:#A9D5D0;" d="M264.4,195.107c-6.383,0-11.558-5.639-11.558-12.587c0-6.952,5.175-12.591,11.558-12.591
	C270.784,169.928,270.784,195.107,264.4,195.107z"/>
<path style="fill:#36160D;" d="M167.156,122.827c0,0-0.52,38.409,12.322,28.127c5.669-4.546,9.5-26.469,18.933-30.218
	c10.9-4.333,41.934,29.74,53.937,26.233c25.279-7.39,34.211-33.343,35.449-38.836l-19.786-1.609c0,0,19.858-6.679,20.389-16.482
	C288.4,90.038,170.98,33.732,167.156,122.827z"/>
<path style="fill:#9E7640;" d="M229.134,253.347c0,0,13.422-42.768-12.771-80.186l-3.981,65.533L229.134,253.347z"/>
<g>
	<path style="fill:#A47E46;" d="M160.2,308.826l-9.657,1.65l-23.046,3.94l-14.638,124.428c0.333,0.21,0.655,0.43,0.992,0.636
		l39.049-63.733l2.043-3.334l6.035-14.05L160.2,308.826z"/>
	<path style="fill:#A47E46;" d="M343.542,345.48l-15.682,6.634l0.153,2.301l39.049,80.571c2.376-1.564,4.715-3.188,7.031-4.834
		L343.542,345.48z"/>
	<polygon style="fill:#A47E46;" points="328.01,354.42 327.857,352.118 327.06,352.455 	"/>
</g>
<g>
	<path style="fill:#6EBD44;" d="M327.685,353.739l33.043-7.936l-20.531-64.108l-36.482-3.742l-36.89,3.981l-51.172,8.778
		L154.83,459.301c25.59,9.452,53.245,14.63,82.117,14.63c34.825,0,67.861-7.573,97.641-21.066l-6.578-98.446L327.685,353.739z"/>
	<polygon style="fill:#6EBD44;" points="165.535,361.188 165.599,347.595 187.69,296.168 163.406,303.461 129.33,306.955 
		108.799,371.059 161.173,383.639 	"/>
</g>
<g>
	<path style="fill:#9E7640;" d="M212.379,238.694l-24.688,57.47l-26.72,62.196l-6.035,14.05l-2.043,3.334l-39.049,63.733
		c10.75,6.548,22.08,12.221,33.867,17.014c1.414,0.576,2.84,1.134,4.269,1.684c0.954,0.37,1.893,0.771,2.851,1.126l60.819-168.589
		l13.485-37.365L212.379,238.694z"/>
	<path style="fill:#9E7640;" d="M375.396,347.157l-57.447-133.719l-16.756,14.653l42.345,117.39l30.548,84.676
		c11.809-8.397,22.814-17.837,32.879-28.202c0.408-0.419,0.808-0.853,1.212-1.276L375.396,347.157z"/>
</g>
</svg>